name rise32.9588peak41.5061fall63.4684.mot
datacolumns 19
datarows 59
range 12.481617 12.578288
endheader
time	ground_force1_vx	ground_force1_vy	ground_force1_vz	ground_force1_px	ground_force1_py	ground_force1_pz	ground_force2_vx	ground_force2_vy	ground_force2_vz	ground_force2_px	ground_force2_py	ground_force2_pz	ground_torque1_x	ground_torque1_y	ground_torque1_z	ground_torque2_x	ground_torque2_y	ground_torque2_z	
12.481617	0.000000	0.000000	0.000000	0.000000	0.000000	0.000000	-32.975089	829.343180	-51.130447	0.138605	0.000000	-0.070805	0.000000	0.000000	0.000000	0.000000	-18.406265	0.000000	
12.483290	0.000000	0.000000	0.000000	0.000000	0.000000	0.000000	-33.197290	828.901468	-51.163869	0.137873	0.000000	-0.070778	0.000000	0.000000	0.000000	0.000000	-18.322031	0.000000	
12.484956	0.000000	0.000000	0.000000	0.000000	0.000000	0.000000	-33.411120	828.367040	-51.182231	0.137147	0.000000	-0.070748	0.000000	0.000000	0.000000	0.000000	-18.233846	0.000000	
12.486622	0.000000	0.000000	0.000000	0.000000	0.000000	0.000000	-33.617234	827.740342	-51.185357	0.136428	0.000000	-0.070715	0.000000	0.000000	0.000000	0.000000	-18.141861	0.000000	
12.488285	0.000000	0.000000	0.000000	0.000000	0.000000	0.000000	-33.816330	827.021903	-51.173099	0.135714	0.000000	-0.070680	0.000000	0.000000	0.000000	0.000000	-18.046240	0.000000	
12.489952	0.000000	0.000000	0.000000	0.000000	0.000000	0.000000	-34.009153	826.212327	-51.145335	0.135008	0.000000	-0.070641	0.000000	0.000000	0.000000	0.000000	-17.947156	0.000000	
12.491618	0.000000	0.000000	0.000000	0.000000	0.000000	0.000000	-34.196487	825.312278	-51.101971	0.134306	0.000000	-0.070600	0.000000	0.000000	0.000000	0.000000	-17.844794	0.000000	
12.493286	0.000000	0.000000	0.000000	0.000000	0.000000	0.000000	-34.379157	824.322476	-51.042941	0.133611	0.000000	-0.070556	0.000000	0.000000	0.000000	0.000000	-17.739347	0.000000	
12.494950	0.000000	0.000000	0.000000	0.000000	0.000000	0.000000	-34.558022	823.243675	-50.968202	0.132922	0.000000	-0.070508	0.000000	0.000000	0.000000	0.000000	-17.631019	0.000000	
12.496623	0.000000	0.000000	0.000000	0.000000	0.000000	0.000000	-34.733977	822.076661	-50.877739	0.132238	0.000000	-0.070458	0.000000	0.000000	0.000000	0.000000	-17.520020	0.000000	
12.498286	0.000000	0.000000	0.000000	0.000000	0.000000	0.000000	-34.907945	820.822232	-50.771559	0.131559	0.000000	-0.070404	0.000000	0.000000	0.000000	0.000000	-17.406568	0.000000	
12.499950	0.000000	0.000000	0.000000	0.000000	0.000000	0.000000	-35.080876	819.481192	-50.649696	0.130886	0.000000	-0.070348	0.000000	0.000000	0.000000	0.000000	-17.290887	0.000000	
12.501617	0.000000	0.000000	0.000000	0.000000	0.000000	0.000000	-35.253744	818.054334	-50.512203	0.130217	0.000000	-0.070288	0.000000	0.000000	0.000000	0.000000	-17.173208	0.000000	
12.503286	0.000000	0.000000	0.000000	0.000000	0.000000	0.000000	-35.427541	816.542431	-50.359160	0.129554	0.000000	-0.070225	0.000000	0.000000	0.000000	0.000000	-17.053764	0.000000	
12.504952	0.000000	0.000000	0.000000	0.000000	0.000000	0.000000	-35.603273	814.946223	-50.190662	0.128895	0.000000	-0.070159	0.000000	0.000000	0.000000	0.000000	-16.932795	0.000000	
12.506615	0.000000	0.000000	0.000000	0.000000	0.000000	0.000000	-35.781958	813.266402	-50.006829	0.128241	0.000000	-0.070090	0.000000	0.000000	0.000000	0.000000	-16.810540	0.000000	
12.508287	0.000000	0.000000	0.000000	0.000000	0.000000	0.000000	-35.964618	811.503609	-49.807795	0.127592	0.000000	-0.070018	0.000000	0.000000	0.000000	0.000000	-16.687243	0.000000	
12.509957	0.000000	0.000000	0.000000	0.000000	0.000000	0.000000	-36.152279	809.658412	-49.593714	0.126947	0.000000	-0.069943	0.000000	0.000000	0.000000	0.000000	-16.563146	0.000000	
12.511616	0.000000	0.000000	0.000000	0.000000	0.000000	0.000000	-36.345960	807.731306	-49.364756	0.126306	0.000000	-0.069865	0.000000	0.000000	0.000000	0.000000	-16.438493	0.000000	
12.513287	-1.363797	3.586270	-1.409413	0.000000	0.000000	0.000000	-36.546675	805.722695	-49.121103	0.125670	0.000000	-0.069784	0.000000	-0.492567	0.000000	0.000000	-16.313526	0.000000	
12.514954	-2.231094	6.961833	-2.373639	0.000000	0.000000	0.000000	-36.755420	803.632886	-48.862955	0.125037	0.000000	-0.069700	0.000000	-0.832590	0.000000	0.000000	-16.188485	0.000000	
12.516621	-3.221908	11.047337	-3.489169	0.000000	0.000000	0.000000	-36.973176	801.462081	-48.590518	0.124409	0.000000	-0.069612	0.000000	-1.226723	0.000000	0.000000	-16.063605	0.000000	
12.518285	-4.308987	15.801334	-4.729566	0.000000	0.000000	0.000000	-37.200898	799.210364	-48.304014	0.123784	0.000000	-0.069522	0.000000	-1.665900	0.000000	0.000000	-15.939121	0.000000	
12.519957	-5.457448	21.151268	-6.059786	0.000000	0.000000	0.000000	-37.439513	796.877703	-48.003671	0.123164	0.000000	-0.069429	0.000000	-2.138037	0.000000	0.000000	-15.815257	0.000000	
12.521619	-6.627053	26.998963	-7.438492	0.301247	0.000000	0.093830	-37.689913	794.463932	-47.689726	0.122547	0.000000	-0.069333	0.000000	-4.247847	0.000000	0.000000	-15.692237	0.000000	
12.523287	-7.775133	33.228878	-8.821112	0.305657	0.000000	0.094732	-37.952949	791.968757	-47.362423	0.121933	0.000000	-0.069234	0.000000	-5.082545	0.000000	0.000000	-15.570273	0.000000	
12.524955	-8.859792	39.718050	-10.163237	0.309670	0.000000	0.095561	-38.229428	789.391741	-47.022010	0.121324	0.000000	-0.069132	0.000000	-5.905347	0.000000	0.000000	-15.449572	0.000000	
12.526619	-9.842954	46.346283	-11.423909	0.313346	0.000000	0.096325	-38.520106	786.732309	-46.668740	0.120718	0.000000	-0.069028	0.000000	-6.691779	0.000000	0.000000	-15.330331	0.000000	
12.528285	-10.692860	53.005246	-12.568361	0.316733	0.000000	0.097036	-38.825685	783.989740	-46.302869	0.120116	0.000000	-0.068920	0.000000	-7.420627	0.000000	0.000000	-15.212738	0.000000	
12.529955	-11.385784	59.605507	-13.569942	0.319868	0.000000	0.097700	-39.146803	781.163168	-45.924655	0.119518	0.000000	-0.068810	0.000000	-8.075178	0.000000	0.000000	-15.096970	0.000000	
12.531617	-11.906847	66.081009	-14.411117	0.322784	0.000000	0.098324	-39.484035	778.251580	-45.534355	0.118923	0.000000	-0.068697	0.000000	-8.643919	0.000000	0.000000	-14.983191	0.000000	
12.533287	-12.250010	72.390928	-15.083570	0.325506	0.000000	0.098912	-39.837885	775.253820	-45.132226	0.118332	0.000000	-0.068581	0.000000	-9.120715	0.000000	0.000000	-14.871555	0.000000	
12.534953	-12.417335	78.519143	-15.587538	0.328057	0.000000	0.099468	-40.208780	772.168586	-44.718527	0.117744	0.000000	-0.068463	0.000000	-9.504507	0.000000	0.000000	-14.762203	0.000000	
12.536623	-12.417717	84.471766	-15.930557	0.330455	0.000000	0.099996	-40.597068	768.994436	-44.293510	0.117161	0.000000	-0.068342	0.000000	-9.798652	0.000000	0.000000	-14.655260	0.000000	
12.538285	-12.265274	90.273259	-16.125827	0.332715	0.000000	0.100499	-41.003011	765.729792	-43.857428	0.116581	0.000000	-0.068219	0.000000	-10.010005	0.000000	0.000000	-14.550839	0.000000	
12.539950	-11.977590	95.961716	-16.190394	0.334851	0.000000	0.100979	-41.426784	762.372941	-43.410527	0.116004	0.000000	-0.068093	0.000000	-10.147871	0.000000	0.000000	-14.449036	0.000000	
12.541620	-11.573985	101.583847	-16.143334	0.336873	0.000000	0.101438	-41.868468	758.922048	-42.953054	0.115432	0.000000	-0.067965	0.000000	-10.222941	0.000000	0.000000	-14.349933	0.000000	
12.543290	-11.073934	107.190112	-16.004086	0.338791	0.000000	0.101879	-42.328049	755.375153	-42.485246	0.114863	0.000000	-0.067834	0.000000	-10.246293	0.000000	0.000000	-14.253595	0.000000	
12.544957	-10.495760	112.830382	-15.791044	0.340614	0.000000	0.102302	-42.805410	751.730189	-42.007339	0.114299	0.000000	-0.067701	0.000000	-10.228533	0.000000	0.000000	-14.160071	0.000000	
12.546624	-9.855625	118.550364	-15.520464	0.342348	0.000000	0.102710	-43.300333	747.984983	-41.519562	0.113738	0.000000	-0.067566	0.000000	-10.179117	0.000000	0.000000	-14.069392	0.000000	
12.548283	-9.166879	124.388944	-15.205735	0.343999	0.000000	0.103103	-43.812493	744.137266	-41.022140	0.113180	0.000000	-0.067428	0.000000	-10.105884	0.000000	0.000000	-13.981572	0.000000	
12.549950	-8.439722	130.376476	-14.856981	0.345572	0.000000	0.103482	-44.341459	740.184688	-40.515294	0.112627	0.000000	-0.067288	0.000000	-10.014789	0.000000	0.000000	-13.896608	0.000000	
12.551620	-7.681169	136.533990	-14.480988	0.347073	0.000000	0.103848	-44.886686	736.124822	-39.999238	0.112077	0.000000	-0.067147	0.000000	-9.909822	0.000000	0.000000	-13.814478	0.000000	
12.553290	-6.895263	142.873202	-14.081390	0.348504	0.000000	0.104203	-45.447520	731.955183	-39.474182	0.111532	0.000000	-0.067003	0.000000	-9.793101	0.000000	0.000000	-13.735143	0.000000	
12.554951	-6.083465	149.397185	-13.659058	0.349869	0.000000	0.104546	-46.023192	727.673231	-38.940334	0.110990	0.000000	-0.066857	0.000000	-9.665078	0.000000	0.000000	-13.658545	0.000000	
12.556618	-5.245172	156.101520	-13.212620	0.351170	0.000000	0.104879	-46.612821	723.276394	-38.397897	0.110451	0.000000	-0.066709	0.000000	-9.524840	0.000000	0.000000	-13.584610	0.000000	
12.558289	-4.378288	162.975769	-12.739058	0.352411	0.000000	0.105201	-47.215409	718.762074	-37.847069	0.109916	0.000000	-0.066559	0.000000	-9.370456	0.000000	0.000000	-13.513242	0.000000	
12.559965	-3.479809	170.005081	-12.234319	0.353593	0.000000	0.105514	-47.829847	714.127665	-37.288049	0.109385	0.000000	-0.066407	0.000000	-9.199343	0.000000	0.000000	-13.444332	0.000000	
12.561627	-2.546364	177.171802	-11.693888	0.354717	0.000000	0.105817	-48.454914	709.370568	-36.721032	0.108857	0.000000	-0.066253	0.000000	-9.008607	0.000000	0.000000	-13.377751	0.000000	
12.563286	-1.574685	184.456965	-11.113296	0.355785	0.000000	0.106112	-49.089276	704.488207	-36.146213	0.108332	0.000000	-0.066098	0.000000	-8.795359	0.000000	0.000000	-13.313351	0.000000	
12.564957	-0.561989	191.841571	-10.488533	0.356798	0.000000	0.106398	-49.731491	699.478047	-35.563788	0.107810	0.000000	-0.065941	0.000000	-8.556964	0.000000	0.000000	-13.250972	0.000000	
12.566617	0.493749	199.307618	-9.816355	0.357757	0.000000	0.106676	-50.380009	694.337608	-34.973951	0.107291	0.000000	-0.065782	0.000000	-8.291235	0.000000	0.000000	-13.190433	0.000000	
12.568290	1.593625	206.838836	-9.094480	0.358662	0.000000	0.106945	-51.033179	689.064488	-34.376900	0.106774	0.000000	-0.065621	0.000000	-7.996564	0.000000	0.000000	-13.131541	0.000000	
12.569950	2.737729	214.421151	-8.321689	0.359514	0.000000	0.107207	-51.689249	683.656379	-33.772834	0.106260	0.000000	-0.065459	0.000000	-7.671983	0.000000	0.000000	-13.074085	0.000000	
12.571617	3.925156	222.042883	-7.497831	0.360314	0.000000	0.107462	-52.346372	678.111085	-33.161957	0.105748	0.000000	-0.065296	0.000000	-7.317178	0.000000	0.000000	-13.017842	0.000000	
12.573285	5.154079	229.694728	-6.623756	0.361062	0.000000	0.107709	-53.002611	672.426547	-32.544476	0.105237	0.000000	-0.065131	0.000000	-6.932455	0.000000	0.000000	-12.962575	0.000000	
12.574953	6.421878	237.369564	-5.701203	0.361757	0.000000	0.107948	-53.655942	666.600855	-31.920603	0.104728	0.000000	-0.064964	0.000000	-6.518673	0.000000	0.000000	-12.908033	0.000000	
12.576616	7.725290	245.062137	-4.732639	0.362401	0.000000	0.108181	-54.304264	660.632272	-31.290556	0.104219	0.000000	-0.064797	0.000000	-6.077153	0.000000	0.000000	-12.853954	0.000000	
12.578288	9.060578	252.768666	-3.721096	0.362992	0.000000	0.108407	-54.945401	654.519249	-30.654563	0.103711	0.000000	-0.064628	0.000000	-5.609577	0.000000	0.000000	-12.800068	0.000000	
